<svg width="48" height="34" viewBox="0 0 48 34" fill="none" xmlns="http://www.w3.org/2000/svg">
<path d="M47.044 5.37094C46.7726 4.34977 46.2378 3.41778 45.493 2.66825C44.7483 1.91872 43.8197 1.37794 42.8003 1.10003C39.0476 0.0909425 24.0476 0.0909424 24.0476 0.0909424C24.0476 0.0909424 9.04761 0.0909425 5.29488 1.10003C4.27547 1.37794 3.34693 1.91872 2.60218 2.66825C1.85744 3.41778 1.32262 4.34977 1.05124 5.37094C0.0476075 9.14003 0.0476074 17 0.0476074 17C0.0476074 17 0.0476075 24.86 1.05124 28.6291C1.32262 29.6503 1.85744 30.5823 2.60218 31.3318C3.34693 32.0813 4.27547 32.6221 5.29488 32.9C9.04761 33.9091 24.0476 33.9091 24.0476 33.9091C24.0476 33.9091 39.0476 33.9091 42.8003 32.9C43.8197 32.6221 44.7483 32.0813 45.493 31.3318C46.2378 30.5823 46.7726 29.6503 47.044 28.6291C48.0476 24.86 48.0476 17 48.0476 17C48.0476 17 48.0476 9.14003 47.044 5.37094Z" fill="#FF0302"/>
<path d="M19.1385 24.1373V9.86279L31.684 17.0001L19.1385 24.1373Z" fill="#FEFEFE"/>
</svg>
